<svg xmlns="http://www.w3.org/2000/svg" viewBox="0 0 56 32" width="56" height="32" aria-hidden="true">
  <defs>
    <linearGradient id="ps-grad" x1="0%" y1="50%" x2="100%" y2="50%">
      <stop offset="0%" stop-color="#5E34F1"/>
      <stop offset="50%" stop-color="#D01692"/>
      <stop offset="100%" stop-color="#F97316"/>
    </linearGradient>
  </defs>
  <!-- Eye outline (almond) -->
  <path d="M8 16c0-4 3-10 10-10s10 6 10 10-3 10-10 10S8 20 8 16z" fill="none" stroke="url(#ps-grad)" stroke-width="2" stroke-linecap="round"/>
  <!-- Iris -->
  <circle cx="18" cy="16" r="5" fill="url(#ps-grad)"/>
  <!-- Arrow (up-right) -->
  <path d="M17 13l3 3-4 4 1.5 1.5 4-4-3-3h-1.5z" fill="#F97316"/>
  <!-- Sweeping arrow -->
  <path d="M28 24l4-8 2 1-3 6 4 2 2-4 2 1-3 6-9-4z" fill="url(#ps-grad)"/>
</svg>
